<svg xmlns="http://www.w3.org/2000/svg" width="840" height="220" viewBox="0 0 840 220" role="img" aria-label="DS SysTech logo">
  <title>DS SysTech</title>
  <desc>Logo em estilo financeiro/tecnologia com ícone DS e wordmark SysTech.</desc>

  <defs>
    <!-- Gradientes -->
    <linearGradient id="bgGrad" x1="0" y1="0" x2="1" y2="1">
      <stop offset="0" stop-color="#0B5FFF"/>
      <stop offset="1" stop-color="#08B3A4"/>
    </linearGradient>

    <linearGradient id="strokeGrad" x1="0" y1="0" x2="1" y2="0">
      <stop offset="0" stop-color="#EAF2FF"/>
      <stop offset="1" stop-color="#FFFFFF"/>
    </linearGradient>

    <linearGradient id="techGrad" x1="0" y1="0" x2="1" y2="0">
      <stop offset="0" stop-color="#0B5FFF"/>
      <stop offset="1" stop-color="#08B3A4"/>
    </linearGradient>

    <!-- Sombra leve -->
    <filter id="softShadow" x="-20%" y="-20%" width="140%" height="140%">
      <feDropShadow dx="0" dy="6" stdDeviation="8" flood-color="#0A1A2B" flood-opacity="0.22"/>
    </filter>

    <!-- Brilho interno sutil -->
    <filter id="innerGlow" x="-20%" y="-20%" width="140%" height="140%">
      <feGaussianBlur in="SourceAlpha" stdDeviation="2" result="blur"/>
      <feComposite in="blur" in2="SourceAlpha" operator="arithmetic" k2="-1" k3="1" result="inner"/>
      <feColorMatrix in="inner" type="matrix"
        values="1 0 0 0 1
                0 1 0 0 1
                0 0 1 0 1
                0 0 0 0.18 0" />
      <feComposite in="SourceGraphic" operator="over"/>
    </filter>
  </defs>

  <!-- ÍCONE -->
  <g filter="url(#softShadow)">
    <!-- Fundo -->
    <rect x="22" y="22" width="176" height="176" rx="44" fill="url(#bgGrad)"/>

    <!-- Detalhes (barras/finance + linhas tech) -->
    <g opacity="0.22">
      <rect x="50" y="132" width="14" height="36" rx="7" fill="#FFFFFF"/>
      <rect x="72" y="116" width="14" height="52" rx="7" fill="#FFFFFF"/>
      <rect x="94" y="100" width="14" height="68" rx="7" fill="#FFFFFF"/>
      <path d="M44 78 C78 60, 110 58, 156 78" fill="none" stroke="#FFFFFF" stroke-width="6" stroke-linecap="round"/>
    </g>

    <!-- Monograma DS (sem fonte: desenhado em strokes) -->
    <g filter="url(#innerGlow)">
      <!-- D -->
      <path d="M78 72
               V148
               C78 162 89 172 103 172
               H122
               C154 172 176 150 176 118
               C176 90 156 72 126 72
               H103
               C89 72 78 82 78 96"
            fill="none"
            stroke="url(#strokeGrad)"
            stroke-width="16"
            stroke-linecap="round"
            stroke-linejoin="round"/>

      <!-- S -->
      <path d="M162 92
               C156 80 141 72 124 72
               C103 72 90 82 90 98
               C90 113 102 121 124 125
               C148 129 160 138 160 152
               C160 168 143 176 124 176
               C106 176 92 169 86 156"
            fill="none"
            stroke="#E9FFFB"
            stroke-width="14"
            stroke-linecap="round"
            stroke-linejoin="round"
            opacity="0.95"/>

      <!-- Nós/circuitos -->
      <circle cx="176" cy="78" r="6" fill="#FFFFFF" opacity="0.9"/>
      <circle cx="62" cy="168" r="6" fill="#FFFFFF" opacity="0.8"/>
      <circle cx="186" cy="166" r="4.8" fill="#FFFFFF" opacity="0.7"/>
    </g>
  </g>

  <!-- WORDMARK -->
  <g transform="translate(232, 58)">
    <!-- Linha 1: DS -->
    <text x="0" y="52"
          font-family="Inter, ui-sans-serif, system-ui, -apple-system, Segoe UI, Roboto, Arial, sans-serif"
          font-size="52"
          font-weight="800"
          letter-spacing="-0.5"
          fill="#0A1A2B">DS</text>

    <!-- Linha 1: SysTech -->
    <text x="94" y="52"
          font-family="Inter, ui-sans-serif, system-ui, -apple-system, Segoe UI, Roboto, Arial, sans-serif"
          font-size="52"
          font-weight="700"
          letter-spacing="-0.6"
          fill="#0A1A2B">
      <tspan fill="#0A1A2B" opacity="0.78">Sys</tspan>
      <tspan fill="url(#techGrad)">Tech</tspan>
    </text>

    <!-- Linha 2: tagline -->
    <text x="2" y="92"
          font-family="Inter, ui-sans-serif, system-ui, -apple-system, Segoe UI, Roboto, Arial, sans-serif"
          font-size="18"
          font-weight="500"
          letter-spacing="0.6"
          fill="#0A1A2B"
          opacity="0.62">
      Sistemas financeiros • controle • automação
    </text>
  </g>

  <!-- SAFE AREA (invisível) para export -->
  <rect x="0" y="0" width="840" height="220" fill="none"/>
</svg>
